<svg xmlns="http://www.w3.org/2000/svg" width="120" height="40" viewBox="0 0 120 40" fill="none">
  <!-- PwC Logo Design -->
  <rect x="0" y="0" width="120" height="40" fill="#D73502" rx="4"/>

  <!-- P -->
  <path d="M12 8h8c3 0 5 2 5 4.5s-2 4.5-5 4.5h-4v7h-4V8zm4 6h4c1 0 2-0.5 2-1.5s-1-1.5-2-1.5h-4v3z" fill="white"/>

  <!-- w -->
  <path d="M30 15l2 9h2l3-7 3 7h2l2-9h-3l-1 6-2-6h-2l-2 6-1-6h-3z" fill="white"/>

  <!-- C -->
  <path d="M50 19.5c0-3 2-5.5 5.5-5.5 2 0 4 1 5 2.5l-2 2c-0.5-1-1.5-1.5-3-1.5-2 0-3 1.5-3 2.5s1 2.5 3 2.5c1.5 0 2.5-0.5 3-1.5l2 2c-1 1.5-3 2.5-5 2.5-3.5 0-5.5-2.5-5.5-5.5z" fill="white"/>

  <!-- Tagline -->
  <text x="72" y="17" font-family="Arial, sans-serif" font-size="6" fill="white" font-weight="600">Code</text>
  <text x="72" y="25" font-family="Arial, sans-serif" font-size="6" fill="white" font-weight="600">Assistant</text>
</svg>