<svg xmlns="http://www.w3.org/2000/svg" width="32" height="32" viewBox="0 0 32 32" fill="none">
  <!-- PwC Favicon Design -->
  <rect x="0" y="0" width="32" height="32" fill="#D73502" rx="4"/>

  <!-- P -->
  <path d="M6 4h5c2 0 3 1 3 2.5s-1 2.5-3 2.5h-2v4h-3V4zm3 4h2c1 0 1-0.5 1-1s0-1-1-1h-2v2z" fill="white"/>

  <!-- w -->
  <path d="M16 8l1.5 6h1.5l2-4 2 4h1.5l1.5-6h-2l-1 4-1.5-4h-1l-1.5 4-1-4h-2z" fill="white"/>

  <!-- C -->
  <path d="M9 18c0-2 1-3 3-3 1 0 2 0.5 3 1.5l-1 1c-0.5-0.5-1-1-2-1-1 0-1.5 0.5-1.5 1.5s0.5 1.5 1.5 1.5c1 0 1.5-0.5 2-1l1 1c-1 1-2 1.5-3 1.5-2 0-3-1-3-2.5z" fill="white"/>
</svg>