<svg xmlns="http://www.w3.org/2000/svg" width="400" height="80" viewBox="0 0 400 80" fill="none">
  <!-- PwC Logo Design for Documentation -->
  <rect x="0" y="0" width="400" height="80" fill="#D73502" rx="8"/>

  <!-- P -->
  <path d="M30 20h20c7.5 0 12.5 5 12.5 11.25s-5 11.25-12.5 11.25h-10v17.5h-10V20zm10 15h10c2.5 0 5-1.25 5-3.75s-2.5-3.75-5-3.75h-10v7.5z" fill="white"/>

  <!-- w -->
  <path d="M75 35l5 22.5h5l7.5-17.5 7.5 17.5h5l5-22.5h-7.5l-2.5 15-5-15h-5l-5 15-2.5-15h-7.5z" fill="white"/>

  <!-- C -->
  <path d="M125 46.25c0-7.5 5-13.75 13.75-13.75 5 0 10 2.5 12.5 6.25l-5 5c-1.25-2.5-3.75-3.75-7.5-3.75-5 0-7.5 3.75-7.5 6.25s2.5 6.25 7.5 6.25c3.75 0 6.25-1.25 7.5-3.75l5 5c-2.5 3.75-7.5 6.25-12.5 6.25-8.75 0-13.75-6.25-13.75-13.75z" fill="white"/>

  <!-- Text -->
  <text x="180" y="35" font-family="Arial, sans-serif" font-size="14" fill="white" font-weight="600">Code Assistant</text>
  <text x="180" y="55" font-family="Arial, sans-serif" font-size="12" fill="white" font-weight="400">Professional Development Platform</text>
</svg>
</svg>
